<?xml version="1.0" encoding="UTF-8"?>
<svg width="301px" height="133px" viewBox="0 0 301 133" version="1.1" xmlns="http://www.w3.org/2000/svg" xmlns:xlink="http://www.w3.org/1999/xlink">
    <title>Artboard</title>
    <g id="Artboard" stroke="none" stroke-width="1" fill="none" fill-rule="evenodd">
        <g id="Logo" transform="translate(16.000000, 9.679848)">
            <line x1="20.5" y1="10.8201519" x2="0.5" y2="95.8201519" id="Line" stroke="#000000" stroke-width="20" stroke-linecap="round"></line>
            <line x1="20.5" y1="10.8201519" x2="41.5" y2="95.8201519" id="Line" stroke="#000000" stroke-width="20" stroke-linecap="round"></line>
            <g id="붓" transform="translate(74.080448, 56.750173) rotate(-1.000000) translate(-74.080448, -56.750173) translate(42.077221, 0.549974)">
                <path d="M21.6963586,68.1961422 C21.8851983,68.1903442 22.0452225,68.2701921 22.1880972,68.4014226 C22.4129492,68.6079492 22.5964966,68.9242502 22.7632064,69.3102317 C23.2651357,70.4723439 23.5728351,72.2263464 23.8764978,74.0047578 L23.8764978,74.0047578 L23.9750476,74.5829465 C24.3307541,76.6665729 24.7097516,78.7023111 25.3436834,79.8873073 C26.4727351,81.9978216 27.4452684,83.5658963 28.2668825,84.8903484 C29.7192357,87.2315602 30.6936199,88.7852113 31.2038357,91.3140259 C32.3779528,97.1333761 31.8117566,101.39174 29.3689575,104.030337 L29.3689575,104.030337 L19.0073686,109.221984 C15.5127968,105.243655 13.2911837,102.064713 12.361443,99.6751967 C9.53272117,92.40513 10.6102022,83.8914797 11.8370908,81.4043499 C13.4065332,78.2228003 15.5941256,74.4264029 17.6801267,71.6929677 C19.1842288,69.722036 20.607003,68.229589 21.6963586,68.1961422 Z" id="Triangle" stroke="#FFFFFF" fill="#000000" transform="translate(21.183994, 88.768669) rotate(-145.000000) translate(-21.183994, -88.768669) "></path>
                <path d="M34.2891969,56.3414043 L34.6481509,66.4014285 L34.8519412,72.1128431 L25.0602762,71.923998 L27.3631381,56.3938412 L34.2891969,56.3414043 Z" id="Rectangle" stroke="#000000" fill="#FFFFFF" transform="translate(29.926383, 64.230337) rotate(7.500000) translate(-29.926383, -64.230337) "></path>
                <path d="M32.3779663,6.19117714 L39.2164045,6.20331553 L38.8461122,55.9747703 L32.0305357,55.8994194 L32.3779663,6.19117714 Z" id="Rectangle" stroke="#000000" fill="#000000" transform="translate(35.623600, 31.085291) rotate(8.000000) translate(-35.623600, -31.085291) "></path>
                <path d="M39.923599,1.63918779 C40.6880268,1.64026056 41.7113294,2.10616892 43.0053831,2.97578331 L43.0053831,2.97578331 L43.0340287,5.13391628 L36.357097,5.10255007 L36.2747547,2.98987014 C37.9292568,2.10476699 39.1432193,1.63810277 39.923599,1.63918779 Z" id="Rectangle" stroke="#000000" fill="#000000" transform="translate(39.651874, 3.387745) rotate(8.000000) translate(-39.651874, -3.387745) "></path>
                <path d="M40.316513,1.53452677 C42.000662,-0.14301526 51.2839105,-1.1331599 52.5086614,2.30128167 C54.4427752,7.72491589 51.9524441,13.670592 53.7088721,18.5959604" id="Path" stroke="#000000"></path>
                <path d="M56.2581947,18.0756694 C56.7814741,18.0627508 57.3134909,18.2539945 57.8154394,18.6143555 C58.3494056,18.9977027 58.84663,19.5694613 59.2698458,20.3070127 C60.060392,21.6847225 60.585072,23.6271672 60.5987417,26.0358969 C60.6088302,27.8308976 59.7300052,29.8759933 59.0520079,31.4847768 C58.8293685,32.0130659 58.6258894,32.4965974 58.4742956,32.9144638 C57.9459826,34.384135 57.613668,35.3362881 57.1809217,35.9646848 C56.9510714,36.2984535 56.6984895,36.5479104 56.3437368,36.5566684 C55.9088606,36.5674044 55.6054376,36.3309584 55.3416129,35.9540713 C54.890854,35.3101389 54.5538596,34.2976604 54.14064,33.0560335 C53.9830868,32.5826233 53.7295258,31.9832865 53.4465105,31.3164728 C52.781126,29.7487575 51.9294414,27.7859806 51.9208593,26.2691792 C51.9072717,23.8677059 52.4217404,21.9039864 53.2075419,20.4877183 C54.0329961,18.9999831 55.1564151,18.1028697 56.2581947,18.0756694 Z" id="Oval" stroke="#000000" fill="#000000" transform="translate(56.259665, 27.316057) rotate(-19.000000) translate(-56.259665, -27.316057) "></path>
            </g>
        </g>
        <text id="N행시인" font-family="NanumGothic, Nanum Gothic" font-size="48" font-weight="normal" fill="#000000">
            <tspan x="129.872" y="83">N행시인</tspan>
        </text>
    </g>
</svg>